<svg width="22" height="15" viewBox="0 0 22 15" fill="none" xmlns="http://www.w3.org/2000/svg">
<path d="M3.41421 0.585786C2.63316 -0.195262 1.36684 -0.195262 0.585786 0.585786C-0.195262 1.36684 -0.195262 2.63316 0.585786 3.41421L3.41421 0.585786ZM10.4853 13.3137L11.8995 14.7279L14.7279 11.8995L13.3137 10.4853L10.4853 13.3137ZM0.585786 3.41421L10.4853 13.3137L13.3137 10.4853L3.41421 0.585786L0.585786 3.41421Z" fill="white"/>
<path d="M10.5858 10.6066L9.17157 12.0208L12 14.8492L13.4142 13.435L10.5858 10.6066ZM20.4853 6.36396C21.2663 5.58291 21.2663 4.31658 20.4853 3.53553C19.7042 2.75448 18.4379 2.75448 17.6569 3.53553L20.4853 6.36396ZM13.4142 13.435L20.4853 6.36396L17.6569 3.53553L10.5858 10.6066L13.4142 13.435Z" fill="white"/>
</svg>
