<svg width="25" height="25" viewBox="0 0 25 25" fill="none" xmlns="http://www.w3.org/2000/svg">
<path d="M0 0H25V19C25 22.3137 22.3137 25 19 25H6C2.68629 25 0 22.3137 0 19V0Z" fill="#CB214A"/>
<path d="M4.39475 12.5251C2.53508 10.5749 2.53508 7.41291 4.39475 5.46268C6.25441 3.51244 9.26952 3.51244 11.1292 5.46268L17.2363 11.8673C18.3415 13.0262 18.3415 14.8489 17.2363 16.0079L14.6472 18.7231C13.4652 19.9627 11.487 19.9627 10.3049 18.7231L4.39475 12.5251Z" fill="white"/>
<path d="M20.6053 12.5251C22.4649 10.5749 22.4649 7.41291 20.6053 5.46268C18.7456 3.51244 15.7305 3.51244 13.8708 5.46268L7.76365 11.8673C6.6585 13.0262 6.6585 14.8489 7.76365 16.0079L10.3528 18.7231C11.5348 19.9627 13.513 19.9627 14.6951 18.7231L20.6053 12.5251Z" fill="white"/>
</svg>
