<svg width="24" height="18" viewBox="0 0 24 18" fill="none" xmlns="http://www.w3.org/2000/svg">
<path d="M14.9456 9.86459L13.6408 8.97972L11.9698 11.2744L13.2746 12.1593L14.9456 9.86459ZM21.0112 17.4059C21.7319 17.8946 22.6901 17.7771 23.1515 17.1434C23.613 16.5097 23.4028 15.5999 22.6822 15.1112L21.0112 17.4059ZM13.8486 6.00752C14.6497 7.9983 13.387 10.5601 10.3269 11.4153L11.4469 14.1984C15.64 13.0266 18.3228 9.13857 16.7379 5.20007L13.8486 6.00752ZM10.3269 11.4153C7.26688 12.2705 4.406 10.861 3.60486 8.87027L0.715563 9.67772C2.30052 13.6162 7.25382 15.3702 11.4469 14.1984L10.3269 11.4153ZM3.60486 8.87027C2.80371 6.87949 4.06645 4.31766 7.12651 3.46248L6.00652 0.679389C1.81341 1.85121 -0.869396 5.73922 0.715563 9.67772L3.60486 8.87027ZM7.12651 3.46248C10.1866 2.60731 13.0475 4.01674 13.8486 6.00752L16.7379 5.20007C15.1529 1.26157 10.1996 -0.492432 6.00652 0.679389L7.12651 3.46248ZM13.2746 12.1593L21.0112 17.4059L22.6822 15.1112L14.9456 9.86459L13.2746 12.1593Z" fill="#727272"/>
</svg>
