<svg width="25" height="25" viewBox="0 0 25 25" fill="none" xmlns="http://www.w3.org/2000/svg">
<path d="M0 0H25V19C25 22.3137 22.3137 25 19 25H6C2.68629 25 0 22.3137 0 19V0Z" fill="#2184CB"/>
<path d="M14.6111 12.5H18.1296M12.5 10.3889V5.46296M22 12.5C22 17.7467 17.7467 22 12.5 22C7.2533 22 3 17.7467 3 12.5C3 7.2533 7.2533 3 12.5 3C17.7467 3 22 7.2533 22 12.5ZM13.5556 12.5C13.5556 13.083 13.083 13.5556 12.5 13.5556C11.917 13.5556 11.4444 13.083 11.4444 12.5C11.4444 11.917 11.917 11.4444 12.5 11.4444C13.083 11.4444 13.5556 11.917 13.5556 12.5Z" stroke="white" stroke-linecap="round"/>
</svg>
